<?xml version="1.0" encoding="UTF-8"?>
<svg id="Calque_1" xmlns="http://www.w3.org/2000/svg" version="1.1" viewBox="0 0 380.4 115.1">
  <!-- Generator: Adobe Illustrator 29.1.0, SVG Export Plug-In . SVG Version: 2.1.0 Build 142)  -->
  <defs>
    <style>
      .st0 {
        fill: #8b4e40;
      }

      .st1 {
        fill: #eca699;
      }
    </style>
  </defs>
  <g>
    <path class="st1" d="M310.4,102.3c-2.5,0-5-2-6.3-5-3.8-9.1.2-27.5,7.3-34.1,1.2-1.1,2.6-1.7,3.9-2.3.3-.2.7-.3,1-.5,0-2.2,0-4.3,0-6.5,0-6.9.1-14-.9-20.9-.7,2.6-1.3,5.2-2,7.8-1.3,5.3-2.6,10.8-4.6,16l-.2.6c-.5,1.2-1,2.7-1.6,3.8-1.4,2.6-2.6,3.8-3.9,3.8h0c-2.8,0-3.7-5.1-4.3-10.3-.7-5.8-.8-11.9-.8-17.8,0-2.5,0-5,0-7.5,0-.2,0-.3,0-.5.5-1.1,1.2-1.4,1.7-1.4s1,.2,1.6,1c0,.1.1.3.2.5.3,3.8.2,7.7.2,11.6,0,5.8-.2,11.8,1,17.3.2.8.4,1.8.7,2.5.9-1.8,2.4-5.9,4.4-12.3.9-2.8,1.6-5.9,2.4-8.9,1-4.1,2.1-8.4,3.4-12.1,0-.2.1-.3.1-.5.2-.7.5-1.7,1.5-2.2.1,0,.2,0,.3-.1,0,0,.2,0,.3,0,.9,0,1.4.7,1.6,1,1,1.4,1.6,6.4,1.9,8.5.6,5.4.6,10.9.6,16.2,0,3.8,0,7.7.3,11.4v1.3c0,1.7,0,3.5,0,5.2,0,1.8,0,3.7,0,5.6-.3,7.9-1.5,21.8-5.5,26.7-1.5,1.8-3.1,2.2-4.2,2.2ZM316.3,64.2c-.6.2-1.3.6-1.6.8-4.9,3.7-9.1,17.9-8.8,24.3.1,2.9,1.3,7.5,3.3,8.6.5.3.9.4,1.3.4h0c.8,0,1.3-1,2-2.6l.2-.5c3.7-8.3,3.6-18,3.6-27.4,0-1.3,0-2.5,0-3.8Z"/>
    <path class="st1" d="M319.2,62.7c-.1,3.6.2,7.2,0,10.7-.3,6.3-1.3,21.3-5.3,26.1s-7.2,1.1-8.8-2.6c-3.5-8.5.1-26.6,7-33s3.5-2,5.2-2.9c0-9.5.5-19.1-.9-28.6s-.2-1.6-.4-2.3,0-1-.4-.9c-2.8,9-4.2,18.5-7.5,27.3s-1.1,3.1-1.8,4.3c-4.5,8.6-5.9-2.1-6.4-6.1-1-8.2-.7-16.9-.9-25.2.4-.9,1-1.1,1.6-.2.7,9.4-.8,19.7,1.1,29s.7,3.1,1.6,4.1c1.2,0,4.9-12.2,5.4-13.9,2.1-6.7,3.5-14.6,5.8-21s.4-1.7,1.2-2.2c.4,0,.7.3.9.6.9,1.2,1.5,6.3,1.7,8,1,9.2.4,18.4.9,27.6,0,.9,0,.8,0,1.2ZM317.3,63c-.4-.4-2.7.8-3.2,1.2-5.4,4-9.5,18.7-9.2,25.2s1.3,8,3.8,9.5,3.8-.8,4.9-3.2c4.4-10,3.6-22,3.7-32.7Z"/>
    <path class="st1" d="M209.7,73.6c-1,0-3.6-2-3.6-2-2.5-2.3-4.1-7.1-4.6-9.9-1.1-6-.7-12-.4-17.8.3-4.6.5-9.2,0-13.9-2.1,5.1-3.1,11-4,16.7-.8,4.8-1.6,9.7-3.1,14.1v.4c-1,3.1-1.8,4.8-3.2,4.8-.2,0-.4,0-.6-.1-.1,0-.2-.1-.3-.2-1.4-1.6-1.7-4-1.9-5.9v-.4c-.4-2.5-.6-5.4-.7-7.9-.3-6.9,0-13.9.1-20.7.1-5.1.3-10.3.2-15.5l-12.5,2.2.6,15.1.3,3.6c.7,8.5,1.5,17.3,3,25.8,0,.2,0,.4,0,.6-.2.4-.8,1.5-1.8,1.5h0c-1.6,0-2-2.3-2.4-5.7,0-.3,0-.5,0-.7-1.8-12.5-2.6-25-3.2-39.7-.1,0-.2,0-.3,0-.2,0-.3.1-.4.1-.9.2-2.8.9-5,1.7-5.8,2-10.3,3.5-12,3.5s-.4,0-.6,0c-1.3-.4-1.6-1.1-1.6-1.6,0-.4,0-1.8,4.4-3.6,2.4-1,5.3-1.7,7.9-2.4h.1c.3-.1.9-.2,1.8-.4,1.4-.3,4.4-.9,5.5-1.3,0-.7,0-1.5,0-2.4-.1-1.4-.2-2.7,0-3.6.2-.6,1.2-1.5,2-1.5s.5,0,.7.2c.3.2.4.5.4.8s.2.8.3,1.2c.2.6.3,1,.3,1.4v3.1c3.1-.7,6.4-1.3,9.6-1.8.2,0,.7,0,1.3-.1.4,0,1.1,0,1.6-.1.1-.7.4-1.7,1.5-1.9.1,0,.2,0,.3,0,1.1,0,1.5,1.1,1.7,1.6,0,0,0,0,0,0h0c.3,0,.5,0,.8,0,.4,0,.7,0,1.1,0s1.4,0,2.2.8c.1.1.2.2.2.4.2.7,0,1.2-.2,1.5-.6.8-1.7.9-2.9,1-.4,0-1.1,0-1.5.2,0,2.9,0,5.7,0,8.6,0,2.9,0,5.8,0,8.7,0,2.2,0,4.3,0,6.5,0,5.3-.2,10.7,0,16.1,0,.8.1,1.6.2,2.5.5-2.4,1-4.9,1.4-7.3.7-3.6,1.4-7.3,2.3-11v-.2c2.2-9.2,4-13.8,5.9-14.9.5-.3,1-.4,1.4-.4s1.1.2,1.5.7c1.3,1.3,1.3,4.4,1.2,7.6v.5c0,1.6-.2,3.5-.3,5.5-.5,9.8-1.4,24.6,3.5,30.5,0,0,.4.4.7.6,1.7,1.4,2.9,2.5,2.6,3.7,0,.4-.4,1-1.5,1.2,0,0-.2,0-.2,0Z"/>
    <path class="st1" d="M172.2,8.6c0-.3.9-.9,1.2-.8,0,.7.6,2.1.6,2.6v4.4c3.6-.8,7.1-1.5,10.7-2.1s3.5-.2,3.7-.4,0-1.6.8-1.8.9,1.4,1.2,1.5c1.2.3,3.1-.6,4,.4.6,1.8-4.3.5-4.5,2.1,0,5.8,0,11.7,0,17.5,0,7.5-.4,15.1,0,22.6.1,2.2.5,4.6.9,6.8l1.1-3c1.4-6.4,2.4-12.9,3.9-19.3s3.1-13.1,5.4-14.5,2.6,5.7,2.6,7.4c-.2,9.3-2.7,29.3,3.5,36.6s4.7,3.4,2.4,3.9-2.6-1.4-3-1.8c-2.2-2-3.8-6.4-4.3-9.3-2.1-11.5,1.2-23.2-.7-34.8-.5,0-.5.6-.7,1-4.6,9.7-4.6,22.4-8,32.7s-1.4,5-2.5,4.5c-1.3-1.5-1.5-3.9-1.8-5.8s-.6-5.3-.7-7.8c-.5-12.4.5-24.9.3-37.3l-14.5,2.6.6,16c.9,9.9,1.6,19.8,3.3,29.5-1.8,3.4-2.2-3.2-2.4-4.6-1.9-13.4-2.7-27-3.2-40.5-.2-.4-1.5.1-1.9.2-2.8.7-15.4,5.6-17,5.2-2.8-.8,2.1-2.9,2.9-3.3,2.4-1,5.3-1.7,7.9-2.4s8-1.6,8-2c.3-1.7-.4-4.9,0-6.3Z"/>
    <path class="st1" d="M35.3,74c-.1,0-.2,0-.3,0-.1,0-.3,0-.4-.2-1.6-1.2-2.1-3.3-2.5-5v-.3c-1.2-4.6-1.5-9.5-1.8-14.2,0-.8,0-1.6-.2-2.4l-2.3,6.2s0,0,0,.1c-.2.3-.4.7-.6,1.1-2,3.9-4.8,9.3-9.7,9.3-.6,0-1.2,0-1.8-.2-3.4-.9-4.7-6.8-5.2-9.3-1.5-9.2-.4-18.5.7-27.4.2-2,.5-4,.7-5.9.1-1.4.2-2.9.3-4.5.1-2.4.2-5,.6-7.1.2-1.1,1-1.8,1.9-1.8s1.1.1,1.6,1c0,.2.2.3.2.5,0,5.9-.8,11.8-1.5,17.6-.5,4-1.1,8.1-1.3,12.2-.3,5.1-.6,11.5.5,16.3.7,3.1,1.9,5,3.1,5s.9-.2,1.4-.5c4.3-2.9,10.6-18,11.1-23.4.2-3.1.1-6.9,0-10.8-.2-8-.4-17.1,2.1-23,.7-1.6,1.5-2.3,2.6-2.3,1.9,0,2.9,2.7,3.2,4.5.9,6.4-.7,13-2.1,19.5-1.2,5.2-2.4,10.5-2.3,15.6,0,4.1.5,9.6,1.3,14.6.2,1.6.7,3.4,1.1,5.1.5,1.9,1,3.9,1.2,5.6h0c.2,1.5.2,3-.4,3.7-.3.3-.7.5-1.1.5ZM34.4,13.3c-.7,3.6-.9,7.5-1,11.3.6-3.8,1.1-7.5,1-11.3Z"/>
    <path class="st1" d="M30.7,47.3l-3.9,10.5c-2.2,4-5.2,11.1-10.9,9.6s-4-6.1-4.4-8.5c-1.9-11,.2-22.2,1.4-33.1s.2-8.1.9-11.4,1-1.4,1.7-.5c0,10-2.2,19.8-2.9,29.7s-.6,11.7.6,16.6,2.4,7.6,6.1,5.1,11.1-18.6,11.5-24.1c.7-9.4-1.6-25,2.1-33.5s3.5-.8,3.8,1.9c1.5,11.3-4.6,23.5-4.5,34.9s.6,10.2,1.3,14.7,1.9,7.4,2.3,10.7.5,3.3-.7,3.1c-1.4-1.1-1.8-3.1-2.2-4.8-1.6-6.7-1.5-14-2.2-20.9ZM32.9,32.9c1.3-6.9,3-14.1,2.4-21.3s-.2-2.2-.8-2.9c-2.4,7.1-2.3,15.6-2,23.1s-.2,1.1.3,1.1Z"/>
    <path class="st1" d="M73.7,66.6c-.7,0-1.4-.2-2-.6-1.2-.8-1.9-3.6-1.7-5.4.2-1.7,1-2.2,1.5-2.4.1,0,.2,0,.3,0s.3,0,.5.1c1.2.6,1.3,2,1.4,3.2,0,.3,0,.8.1,1.1.6-.6,1.8-2.1,2.4-2.9,4.9-7.5,6.2-17.1,3.3-25-1.5-4-2.6-4.4-3-4.4s-.9.4-1.2.7c-2.8,2.9-4.5,12.1-5.9,19.4-.7,3.9-1.3,7.2-2,9.4v.4c-.4.9-.7,2-1.7,2.7-.2.1-.4.2-.6.2s-.1,0-.2,0h-.8c-.2-.2-.3-.3-.5-.4-.8-.7-1.3-2.4-1.7-6.2-.5-5-.7-10-.9-14.9-.3-8.4-.7-17.1-2.7-25.3,0-.4-.4-1.3-.7-2.3-1.2-3.6-1.4-4.4-1.2-4.9.2-.7.8-1.1,1.2-1.4.1,0,.2-.1.3-.1,0,0,.2,0,.2,0,1.4,0,2.2,1.9,2.9,3.9h0c1.3,3.9,2.1,9.2,2.6,12.9,1,7.3,1.3,14.7,1.6,21.9,0,1.6.1,3.1.2,4.7l3.2-13.6c.8-3.6,3.8-11.1,8.2-11.1s3.3,1.1,4.8,3.4c5.5,8.4,2.2,25.8-2.6,33.4-1.1,1.8-3.1,3.7-5.3,3.7Z"/>
    <path class="st1" d="M64.8,57.9l4.7-20.4c1.1-4.9,6-15.4,11.2-7.4,5.1,7.9,2.3,24.7-2.6,32.3s-3.6,4.3-5.9,2.8-2-5.4-.3-6c1.5.8.2,4.7,2.1,4.5s2.6-2.8,3.1-3.5c4.9-7.5,6.5-17.4,3.4-25.9-.9-2.4-2.9-7.1-5.9-4.1-4.5,4.6-6,22.6-8.1,29.3s-.5,1.9-1.4,2.6h-.8c-.8-.8-1.2-4.6-1.3-5.7-1.5-13.3-.4-27.1-3.7-40.3s-2.1-6.1-2-6.7.5-.6.7-.8c1-.2,1.8,2.6,2.1,3.3,1.2,3.6,2,8.7,2.5,12.6,1.5,11.1,1.4,22.4,2.2,33.6Z"/>
    <path class="st1" d="M281.3,83.3c-.1,0-.2,0-.3,0-1-.3-1.2-1.4-1.4-5.4,0-.6,0-1.1,0-1.3-.7-5.6-1.4-11.3-2.2-16.9-1.2-9-2.4-18.2-3.4-27.4,0-.2,0-.5.2-.7l1-1.4c.2-.2.4-.4.7-.4,0,0,0,0,.1,0,.3,0,.5,0,.7.3.8.7,1.1,1.6,1.3,2.4.9,3.2,1,6.9,1.1,10.4,0,1,0,1.9,0,2.8.6-4.7,1.5-9.5,3.1-13.8,1.4-3.7,4.3-8,7.5-8s3.7,1.6,5.1,4.7c3.9,8.9,2.9,25.8-2.1,34-1.9,3.1-4.3,4.9-6.9,4.9s-1.9-.2-2.8-.7c-.5-.2-1-.5-1.3-.8,0,2.4.2,5,.4,7.6.1,1.3.3,2.6.5,3.9.2,1.4.5,2.9.6,4.4,0,.5-.3.9-.7,1l-.9.3c0,0-.2,0-.3,0ZM282,61.1c.9,0,1.6.7,2.3,1.4.3.3.9.9,1.2,1,.3,0,.5.1.8.1,2.2,0,3.7-3,4.7-5.7,2.6-7,3.2-17.3,1.5-24.9-.8-3.4-1.9-5.1-2.7-5.1s-.7.1-1.6,1.4c-3.2,4.5-6.4,15.2-6.5,31.9.1,0,.2,0,.4,0Z"/>
    <path class="st1" d="M281.8,62.2c.9-.5,2.4,2,3.5,2.3,3.7,1,5.6-3.4,6.6-6.2,2.8-7.4,3.3-17.8,1.5-25.5s-2.7-8.8-6.1-4.1c-7.1,10-7.2,33.2-6.2,45.1s.9,5.6,1.1,8.3l-.9.3c-.6-.2-.6-4.9-.8-5.9-1.8-14.8-3.9-29.5-5.6-44.3l1-1.4c.6.5.8,1.2,1,2,1.5,5.4.7,11.9,1.6,17.4s.2,2.3.9,2.6c.6-6.6,1.3-14.3,3.8-20.5,2.1-5.4,7.1-11.6,10.8-3.2,3.8,8.6,2.8,25-2,33.1s-4.7,5.6-8.4,3.8-3.1-2.1-1.7-3.8Z"/>
    <path class="st1" d="M109.9,66.6c-.9,0-1.8-.3-2.5-.8-2.2-1.5-3.8-6.5-4.9-15-1.1,3.5-2.4,7-4.5,10-2.1,3.1-4.3,4.7-6.4,4.7s-3.9-1-5.3-5.9c-1.5-5.3-1.7-12.3-.4-19.2,1.3-7.3,4.9-15.8,10.5-15.8s3.8.9,5.8,2.8c.2-.2.4-.4.7-.4,0,0,.1,0,.2,0,1.1,0,2,.8,2.2,1.9,0,0,0,0,0,.1,0,2.1,0,4.3,0,6.4,0,7.2,0,14.7,1.6,21.6.5,2.2,1.3,5.5,3,5.5s1-.2,1.7-.6c.2-.1.3-.2.5-.2s.2,0,.3,0c.3,0,.5.3.6.6.4,1,.3,2-.2,2.8-.6.9-1.7,1.4-3,1.4ZM96.8,28.4c-1.2,0-2.5.9-3.5,2.3-4.1,6.1-6,22.1-3.3,28.7.3.8.9,2,1.7,2h0c1.5,0,3.9-3.4,5.4-6.5,2.9-6.5,4.6-14.9,4.5-22.7-.3,0-.6-.2-.8-.5-.3-.3-.7-.8-1-1.3-.3-.4-.5-.8-.7-1-.7-.6-1.4-1-2.2-1Z"/>
    <path class="st1" d="M102.5,29.2l.5-1.2c.7,0,1.2.4,1.3,1.1.2,9.2-.4,19.2,1.7,28.2s1.9,8.1,6.2,5.4c1,2.5-2.3,3.6-4.2,2.2-3.4-2.4-4.6-15.1-5-19.1-1.5,4.9-2.8,10.2-5.8,14.5s-7.9,6.3-9.9-.9c-1.6-5.7-1.4-12.9-.4-18.8s6.5-21.5,15.6-11.4ZM101.4,31c-.6-.5-1.1-1.8-1.7-2.3-2.6-2.4-5.5-1-7.2,1.5-4.2,6.2-6.2,22.7-3.4,29.6s7.5-1.3,8.9-4.5c3.2-7.1,4.7-16,4.6-23.7,0-.4-.8-.3-1.1-.6Z"/>
    <path class="st1" d="M271.7,66.6c-3.9,0-5.6-6.7-6.5-11.7-.2-1.2-.4-2.5-.6-3.8l-.3,1c-1.1,3.1-4.9,13.1-10.4,13.5-.1,0-.2,0-.3,0-3.9,0-5.1-5.2-5.5-7.4-1.4-6.3-1-14.6.9-21.6.8-2.8,3.8-11.9,9.7-11.9s3.9,1,5.8,3h0c.1-.3.4-.5.6-.6,0,0,.2,0,.3,0,.5,0,1.1.3,1.5.8.5.7.6,2.6.5,9.4,0,1.4,0,2.6,0,3.2.2,6.3.7,13.3,2.2,18.3.7,2.3,1.2,3.7,2.3,3.7s1-.2,1.7-.6c.2,0,.3-.1.5-.1.3,0,.6.2.8.4l.7,1c.3.4.2.9,0,1.2-1.3,1.4-2.5,2.1-3.8,2.1ZM259,28.3c-.6,0-1.2.3-2,.8-5.4,3.5-7,21.8-5.5,28.7.4,1.7,1.1,3.6,2.3,3.6.3,0,.7-.1,1.2-.3,4.4-2.3,8.2-17.8,8.6-23.5,0-.8,0-4.3,0-5.5-.3-.1-.6-.3-.8-.6-.3-.3-.5-.6-.7-.9-1.2-1.4-2-2.3-3-2.3Z"/>
    <path class="st1" d="M264.5,29.2l.8-1.2c.3,0,.6.2.7.4.6.9.2,10.1.3,12.1.2,5.6.6,13.2,2.3,18.5s1.8,5.8,5.4,3.7l.7,1c-5.6,6.1-7.9-5.2-8.6-9.2s-.8-5.9-1-8.8l-1.8,5.9c-1.3,3.8-5,12.5-9.5,12.8s-4.3-4.2-4.8-6.6c-1.4-6.5-.9-14.7.9-21.1,2-7.4,7.2-16.2,14.6-7.5ZM264.5,31.4c0-.1-.7-.3-1-.6-2.1-2.3-3.5-4.9-7.1-2.6-6.1,4-7.4,23.2-5.9,29.7s1.8,5.6,4.9,4c5-2.6,8.8-18.9,9.2-24.3,0-.8,0-5.9,0-6.1Z"/>
    <path class="st1" d="M139,70.1c-.4,0-.7-.1-.9-.2h-.1c-8.4-3-9.1-17.5-9.6-28.1-.1-2.8-.3-5.3-.5-7.1-.5-3.4-1.3-5-1.7-5.3-.2.2-.9,1-1.6,4-.9,3.6-1.2,7.5-1.6,11.3-.2,2.2-.4,4.4-.7,6.5,0,.6-.2,1.2-.2,1.9-.3,2.7-.8,6.1-1.5,8.1v.2c-.2.4-.5,1.5-1.8,1.5-1.9,0-3-3.1-3.7-6.2-1.5-6.2-2.4-15.5-2.6-21.5,0-1.8.2-3,.7-3.6.3-.3.6-.4.9-.4,1.2,0,1.8,1.6,2.1,3.2.7,3.3.9,6.7,1,10.1.2,3.4.4,7,1.1,10.3.4-2.5.6-5.2.8-8,.5-6.1,1.1-12.4,3.3-17.6,1.1-2.4,2.6-3.8,4.2-3.8s2.5.6,3.5,3.3c1.6,4.3,1.9,10.4,2.2,15.9.1,2.5.3,4.9.5,7,.7,5.9,1.4,12.1,7,15.4.4.2.6.7.5,1.1l-.3,1.2c-.1.4-.4.7-.9.8,0,0-.2,0-.2,0Z"/>
    <path class="st1" d="M139.3,67.9l-.3,1.2c-.3,0-.6-.1-.8-.2-9.9-3.5-8.3-25.8-9.5-34.3s-3.2-9.7-5.2-1.4-1.5,12.1-2.3,17.9-.8,7.4-1.7,9.8-.2,1-.8,1c-1.4,0-2.4-4.3-2.7-5.4-1.4-5.9-2.3-15.1-2.6-21.3s1-4.2,1.7-.5c1.5,7.3.5,15.6,2.8,22.9s.1.9.6,1c2.1-9,1.1-20.5,4.8-28.9s4.2-4.9,5.8-.6,1.9,16,2.7,22.6,1.6,12.6,7.5,16.2Z"/>
    <path class="st1" d="M218.2,66.2c-5.8,0-9.2-8.8-10.3-14.1-.2-.8-.3-1.9-.4-2.9,0-1-.2-2.1-.4-2.6,0,0,0,0,0,0,0,0,0,0-.1,0-.3-.3-.8-.7-.8-1.5,0-.4.2-.7.4-1,.1-.2.2-.4.3-.6.2-1.5.2-2.9.2-4.4,0-2.4,0-4.9,1-7.8,1.5-4.7,3.9-5.7,5.5-5.7,4.3,0,8.6,6.8,8.8,12,.2,3.4-1.4,7.6-3.7,10-1.5,1.5-3.2,2.3-4.9,2.3s-1.8-.2-2.7-.6c.5,2.3,1,4.3,1.7,6.3,1.6,4.5,3.7,7,5.5,7s2.7-1.2,4.2-3.4c.1-.2.3-.5.4-.9.6-1.3,1.3-2.9,2.8-2.9s.8.1,1.1.4c.5.3.7.8.7,1.4,0,2.4-3.9,6.6-4.6,7.1-1.6,1.3-3.2,1.9-4.8,1.9h0ZM213.7,29.6c-.4,0-.8.2-1.1.5-1.1,1.1-2.1,6.2-2.2,9.3-.1,2.3,0,4.9,1.1,6.2.5.5,1.2.8,2.1.8h.1c2.3,0,3.5-2,4-3.7,1.4-4.2.4-10.2-2-12.2-.7-.6-1.4-.9-2-.9Z"/>
    <path class="st1" d="M209.7,47c.6,3,1.1,6,2.2,8.8,2.3,6.3,6.3,11.6,11.5,3.8.6-.9,1.5-4.2,2.9-3.2s-2.9,6.1-3.9,7c-7.6,6.2-12.2-5.8-13.5-11.6s-.4-4.3-.8-5.6-.9-.7-.9-1.3.5-.8.6-1.5c.6-4.2-.3-7.5,1.2-12.1,3.7-11.2,12.1-1,12.4,6.1s-5.2,15.3-11.8,9.5ZM211.9,29.3c-1.6,1.5-2.4,7.7-2.5,10-.2,3.3-.1,8.1,4.3,8,7-.2,7.1-14,2.6-17.6s-3.1-1.6-4.4-.3Z"/>
    <path class="st1" d="M45.8,68.3c-.2,0-.4,0-.6-.2l-.6-.4c-.2-.2-.4-.5-.4-.8v-.8c-.5-9.4-.9-19-2.5-28.3v-.6c-.6-3.1-1.2-6.5-2.8-9-.3-.4-.2-.9.1-1.3l.7-.7c.1-.1.3-.2.5-.3s.2,0,.3,0c1.8,0,2.9,2.7,4.4,10.4,0,.4.1.7.2.9l.5,3.8c.6-4.8,1.6-9.7,4-13.5.7-1.1,3.3-4.1,5.5-4.1s1.7.5,2.1,1.4c.2.3.1.8-.1,1.1-.6.7-1.4,1-2,1.2-.3.1-.6.2-.8.4-1.7,1.1-3.4,5.3-4.3,8.8-1.5,6-1.9,12.4-2.3,18.6-.3,4.2-.5,8.5-1.1,12.8,0,.3-.3.6-.6.8-.1,0-.3,0-.4,0Z"/>
    <path class="st1" d="M45.8,67.3l-.6-.4c-.4-9.7-.9-19.6-2.5-29.2s-1.1-7.1-2.9-10l.7-.7c1.9-.4,3.4,8.9,3.7,10.4l1.6,12.8c.7-7,.9-16.1,4.8-22.2s4.7-5.3,6-2.8c-.7.8-1.7.8-2.6,1.4-2.4,1.5-4.1,6.7-4.8,9.4-2.6,10.2-1.9,21-3.4,31.4Z"/>
    <path class="st1" d="M235,68.5c0,0-.2,0-.3,0-.8-.2-1.2-1.1-1.3-2.8-.2-2.6-.3-5.3-.5-7.9-.2-4.7-.5-9.6-1.1-14.3-.7-5.5-1.5-10.9-3.5-15.8-.2-.5,0-1,.4-1.3l.7-.4c.2,0,.3-.1.5-.1s0,0,0,0c1.6,0,2.5,2.4,3.1,4.7v.2c1,3.3,1.5,6.6,1.9,9.9.6-5.1,1.9-10.6,4.7-14.3.8-1,3-3.2,5-3.2s1.6.4,2,1c.3.4.2.9,0,1.2-.6.8-1.5,1.2-2.2,1.5-.5.2-.9.4-1.3.7-1.7,1.5-3.2,6.2-4,9.9-1.2,5.5-1.6,11.2-1.9,16.7-.3,4.4-.6,8.9-1.3,13.4,0,.3-.2.5-.5.7-.2.1-.3.2-.5.2Z"/>
    <path class="st1" d="M235,67.5c-.4-.1-.6-1.6-.6-2-.5-7.4-.6-14.9-1.6-22.3s-1.5-11-3.6-16l.7-.4c1.1,0,1.9,3.2,2.2,4.1,1.7,5.6,1.9,11.6,2.5,17.4s.2,1.8.6,2c.2-7,.8-17.6,5.1-23.4s4.1-4,5.4-2.1c-.9,1.1-2.3,1.2-3.3,2.1-2.2,1.9-3.8,7.6-4.4,10.4-2.2,9.9-1.6,20.2-3.2,30.2Z"/>
  </g>
  <path d="M124.6,100.1c.6.6,3.7-1.4,4.1-2.1s-1.1-2.5,0-3.3c2.3-.2,1.8,1.5,1.3,3,4.1.8,6.5-1.9,10-3-.5,1.3-1.6,1.9-1.2,3.6,2.2.1,3.1-2,4.8-2.7l-1.2,4.2,9-3.9c0,.7.2.6-.4,1-2.7,1.7-6.6,2.9-9.5,4.2-1.5,3.9-5.4,9.9-10,10.1s-2.1-.4-2-1.8c.1-2.4,4-5,5.9-6.1s5-2.3,5.6-2.9.8-2,1.3-2.7c-.3-.3-3.2,2.6-4.2,1s0-2.2-.7-1.9c-1.2.5-2.7,1.5-4,1.7s-3.1-.3-3.8-.2-2.3,2.8-4.5,2.6-.8-3-.3-4.2-.2-.7,0-.9.8-.4,1.2-.8c1.2-1.4,2.2-3.1,3.4-4.4,2.7-2.9,6.3-5.4,10-6.9.3.2.4.3.4.7,0,.9-3.2,4-4.1,4.7-2.9,2.6-9.9,6.1-10.9,9.6s-.2.8-.1,1.2ZM138.1,85.4c-1-.8-8.4,6.3-9.4,7.4s-.7.5-.6,1.1c.8-.5,10.8-7.7,10-8.4ZM140.3,101.9c-.4-.3-6.5,3.5-7.2,4.1-1.2,1-3,2.7-2.4,4.3,4.8.2,7.7-4.7,9.6-8.4Z"/>
  <path d="M214.7,93.9c1.8,1.4-3.8,3.7-3.8,4,1.4,2.8,6.3.8,8.6-.2s2.8-1.7,3.7-2,.8-.2.7.4c-2.8,2.1-9.3,5.2-12.6,3.5s-1.1-1.2-1.7-1.2c-2.1,0-8.8,5.2-8.8-.4-1.3.4-6.8,3.1-7.4,1v-1.6c-1.5.5-7.1,3.6-8.4,2.3s.4-2.9.5-4,0-.5-.5-.5c-1,0-3.3,1.5-4.2,2.1s-2.1,2-2.4,2.1c-.5.2-.5-.3-.4-.7.4-.9,2.2-1.6,2.1-2.9-1.6.9-7,4.7-8.6,3.3l-.4-1.5c-1.3.7-5,3.2-6.3,2.6-2.4-1.2,2.5-6.7,6-5.1s.8.4.7,1c-.8.2-1.3-.5-2-.6-1.2,0-3.4,1.6-4,2.6-1.7,2.9,3.2,0,4.1-.4,1.3-.7,2.3-1.7,3.6-2.5.4,1.2-1.5,1.8-1.1,3.3.7,0,1.3,0,2-.3s5.4-2.8,6-3.3,0-.9.3-.9c1.2,0,.6,1.9.8,2.1,1.5-.2,3.8-2.6,5.3-1.5s-2.1,4.5,0,4.5c3,0,7.4-3.9,9.7-4.2s.6.4.5.8-3.2,2.3-1.6,3.1c1,.3,4.1-.9,5.1-1.4,2-.9,5.2-3.6,7.1-3s.6.3.5.7c-.4,1-1.2,1.8-2.4,1.7l1.2-1.5c-1.4-.6-5.5,3.2-4.5,4.2.7,0,1.5,0,2.2,0s4.8-1.6,5.3-1.9.6-1.6,1.1-2.2c.8-1.1,3-2.4,4.3-1.5ZM214.2,94.4c-1.4-.2-3,.7-3.3,2.1.2.2,3.2-1.3,3.3-2.1Z"/>
  <path d="M198.3,90.5c1.7-.4-.7,2.9-1.5,2.7s-.4-.4-.2-.8,1.5-1.9,1.7-2Z"/>
  <path d="M217.5,89c.5.5-3,3-3.3,2.7-.1-.6.3-.7.7-1s2.5-1.9,2.6-1.7Z"/>
  <g>
    <path class="st0" d="M354.6,47.6s0,0,0,0c0,0,0,0,0,0Z"/>
    <path class="st0" d="M353.8,48.4s-.1,0-.1,0c0,0,.1,0,.1,0Z"/>
    <path class="st1" d="M335.9,57.5c0,.2,0,.1.2.2,1.1.3,2.2.5,3.3.8s1.5.6,2.1.5,1.2-.2,1.7-.3c2.3-.3,5.6-.3,7.6.8s4.1,4.8,4.8,7,.2.7.3,1,0,.1,0,.2c-.2.2-1.7.3-2.1.3-.6-2.4-2.8-6.4-5-7.7s-4-1.2-5.9-1.1-2.3.4-3.2.3-.3,0-.4-.1c-1-.2-1.9-.5-2.9-.6s-.3,0-.3,0c-.7-.2-1.5-.3-2.3-.5l2.1-.8Z"/>
    <path class="st1" d="M329.3,54.3q-.1.1-.4.3c-.3.3-.4.3-.6.5-.5-.6-.6-2.3-.6-3.2.2-4.7,4.8-6.3,7.7-9.1l1.6-1.5c1.9,2.8,2.7,7,.7,10s-.9,1-1.3,1.5c-.6.4-1.1,1-1.7,1.4-1.2,1-2.3,2-3.8,2.7-.4.1-1.3-.3-1.6-.2s-.7.7-.8.9c-.4,0-.8-.1-1.2-.2.4-.5,1.2-1,1.3-1.1s0-.6,0-.8c.5-.6.8-1.3,1.3-1.8s.7-.7,1.1-1.3c-.2,0-.4.4-.6.6,0,0,0-.1,0-.1"/>
    <path class="st1" d="M330.6,52.3c-.4.6-.9,1.6-1.4,2.1"/>
    <path class="st1" d="M332.4,50.9c-.4.6-1,1.1-1.4,1.7,0,0,.1,0,.2,0s.6-.7.7-.8c.6-.7,1.2-1.5,1.6-2.3"/>
    <path class="st1" d="M337.1,41.3c0-.2.3-.4.4-.6s0-.4,0-.5c.5-.9,1.3,0,1.7.5.9,1.3,1.8,3.7,1.9,5.3.3,4.3-2.1,6.1-5.1,8.6s-2.5,2.1-4.1,2.6-.2.1-.3,0c.5-.3,1.1-.8,1.6-1.2.9-.7,2.5-2,3.2-2.9,3.8-2.4,3-8.5.8-11.7Z"/>
    <path class="st1" d="M343.1,53.4c-.5.4-1,.8-1.5,1.1l-2.5,1.5c3.2.1,6.3.2,9.5.5s.5,0,.7.1c-.5,0-1,0-1.5,0h-9.4l-1.6.6c-1.2,0-2.2.7-3.4,1-1.6.5-3.9,1.5-6.3,2.2s-5.6,2.6-8.3,2.7c-.4,0,.6-3.5.6-3.8,1.3,0,6-.6,6.9-.8,2.8-.5,5.6-1.1,8.4-1.9s1.6-.6,2.4-.9c2.1-.7,4-1.4,6-2.4s.2-.2.2,0Z"/>
    <path class="st1" d="M354.4,54.6c6.1-1.6,11.6.3,15,5.6s.6.9.7,1.2,0,0,0,0c-.7.1-1.5.1-2.2.2-2.6-4.4-6.1-6.8-11.3-7s-1.3,0-1.9,0-.3,0-.2-.1Z"/>
    <path class="st1" d="M360.1,47.1c0-.1,0-.2.2-.2,3.6-2.6,4.1-7.9,3.3-12l2-.8c0,0,.2,0,.2.2.1.4.2,1.7.3,2.2.1,2.9-.6,7.2-2.9,9.2s-1.9,1.1-3,1.5Z"/>
    <path class="st1" d="M354.2,32.3l1.8-1.3h.3c0,0,.4,4,.4,4,0,1.3.1,2.6,0,3.9-.3.4-.7,1-1,1.4l-1.1,1.8c0-1.5,0-3,0-4.6s-.2-3.4-.4-5.1Z"/>
    <path class="st1" d="M363.5,35.1c.8,4.2,0,10.3-4.3,12.3-.2,0-.4,0-.5,0h-2.4s-.6.5-.6.6c-.4,0-.9,0-1.3,0,.2-.1.2-.2.3-.4,0,0,0,0,0,0,.5-.2.8-.6,1.1-1,.9-.6,2-1.7,2.6-2.6,0,0,.2,0,.3-.2.5-.6,1.5-2.3,1.7-3.1s0-.1-.2,0-.6,1.2-.7,1.4c-.8,1.2-1.8,2.3-2.9,3.2s-2.1,1.4-2.4,1.8c-.1,0,0-.1,0-.2,0-.8.3-1.7.4-2.5s0-1.2.2-1.7,1.4-2.5,1.9-3.1.1-.2.3-.1c-.2.7,0,1.7,0,2.5,1.4-3,3.8-5.3,6.8-6.6Z"/>
    <path class="st1" d="M355.3,48.2l-.5.6c-1.4,1.3-2.6,1.7-4.4,2.4,0-.2.1-.2.2-.2,1.2-.7,2.1-1.5,3.1-2.5s0,0,.1,0,.4-.2.4-.3c.3,0,.7,0,1.1,0Z"/>
    <path class="st1" d="M367.1,60.9c-3.1-5-8.5-6.9-14.2-5.7,0,.1,0,.1-.2.2,0,0,0,0,0,0-.5.4-1.2.6-1.9.5-1.8-.2-5.5-.5-6.9-.5-.8,0-1.5,0-2.3,0l2.6-1.6c.4-.3,2.3-1.8,2.3-1.9.6-.2,1.6,0,2.3-.2.8-.2,2.5-1.1,3.2-1.7,1.7-1.5,1.9-3.3,2.2-5.4.4-3.9.3-8-.1-11.9-.2,0-.3.2-.4.3-3,2.6-6.6,7.2-7.7,11-.5,2-.6,4.3,0,6.3,2.3-2.4,3.6-5.2,4.2-8.5,0-.2.1-1.6.2-1.6.3-.2.2.9.2,1.1-.2,3.5-2,7.2-4.3,9.8,0,.4-.8,1-.8,1,0,0,0,0,0,0-.2.2-.5.4-.9.8-1.1,1-2.5,1.7-3.7,2.5l-1.3.7c2.9,0,7,.2,10.3.6,1,.1,2,.3,3,.5,1.5.3,3.3.6,4.7,1.4.2.1,1.2.7,1.2.9,0,0,0,.1,0,0-.3,0-.9-.5-1.3-.6-1.1-.4-2.6-.7-3.8-.8-.2,0-.4,0-.5,0,.9.5,1.7,1.2,2.6,1.7,3.7,2.1,6.7,2,10.9,1.9.3,0,.5-.1.8,0,0-.3-.2-.5-.4-.8Z"/>
    <path class="st1" d="M353.5,68.1c-2,.1-4,0-5.9-.7s-4.6-2.8-5.9-5.1-.3-.5-.3-.8c.6.2,1.2.5,1.8.8.9.3,2.1.5,2.7,1.2s.8,1.1,1.1,1.7h.2c0-.4-.2-.8-.4-1.1,0-.2-.3-.5-.4-.7s-.2,0-.3,0c-.5-.3-.9-.8-1.5-1.1,0,0,0,0,0,.2.1.1.5.2.5.4-1.4-.4-2.7-1.1-4.1-1.5l-.2-.5c1.2.5,2.5,1,3.7,1.5-.4-.4-3.1-1.4-3.8-1.7,0-.3-.2-.6-.4-.8,2.6-.4,5.8-.6,8.2.7s4.4,5.3,4.9,7.7Z"/>
    <path class="st1" d="M345.9,50.4c2-2.1,3.4-4.8,4.1-7.7l.3-1.5c-.2,2.9-1.3,5.6-3,8s-1.1,1.4-1.1,1.4,0-.1-.2-.2,0,0,0,0Z"/>
    <path class="st1" d="M329.7,57.9l-1.1.3-2.1.3c0,0,.5-.6.7-.8.9.3,1.6.3,2.5.2Z"/>
    <path class="st1" d="M358,58.9s0,0,0,0h0Z"/>
    <path class="st1" d="M358.2,58.9s0,0,0,0h0Z"/>
    <path class="st1" d="M352.6,57.8c0-.3-.5-.4-.6-.7,1.3.2,2.7.5,4,.9s1.3.5,1.8.9c-1.5-.6-3.1-.9-4.7-1.1s-.4,0-.6,0Z"/>
  </g>
</svg>